<svg xmlns="http://www.w3.org/2000/svg" viewBox="0 0 512 512" width="152" height="218"><path d="M359.152 62.716c-2.432 0-4.854.12-7.261.359C335.598 25.341 297.941 0 256.001 0s-79.597 25.341-95.892 63.075a73.451 73.451 0 0 0-7.261-.359c-40.275 0-73.041 32.766-73.041 73.041 0 25.546 13.193 48.057 33.113 61.116l92.152 278.342c7.4 22.346 27.39 36.785 50.929 36.785s43.529-14.439 50.928-36.786l92.152-278.342c19.92-13.058 33.113-35.569 33.113-61.115 0-40.275-32.766-73.041-73.042-73.041zm-80.704 403.07C274.491 477.741 264.258 482 256.001 482s-18.49-4.259-22.447-16.214l-30.965-93.528 95.075 35.487-19.216 58.041zm28.652-86.541L190.492 335.72l-26.222-79.201 163.283 60.946-20.453 61.78zm29.889-90.28l-184.815-68.983-3.751-11.331c1.466.088 2.939.147 4.426.147 17.192 0 33.527-5.967 46.501-16.708 16.79 10.848 36.464 16.708 56.651 16.708s39.861-5.861 56.651-16.708c12.974 10.741 29.309 16.708 46.501 16.708 1.487 0 2.96-.058 4.426-.147l-26.59 80.314zm22.163-110.167c-13.008 0-25.187-5.803-33.413-15.921a15 15 0 0 0-21.394-1.932 74.389 74.389 0 0 1-96.692 0 15 15 0 0 0-21.393 1.932c-8.227 10.118-20.405 15.921-33.413 15.921-23.732 0-43.041-19.308-43.041-43.041 0-23.732 19.309-43.041 43.041-43.041 4.308 0 8.565.637 12.652 1.891a14.998 14.998 0 0 0 18.847-10.3C193.29 52.332 222.755 30 256.001 30s62.711 22.332 71.654 54.307a14.998 14.998 0 0 0 18.847 10.3 43.092 43.092 0 0 1 12.651-1.891c23.732 0 43.041 19.308 43.041 43.041 0 23.733-19.309 43.041-43.042 43.041z" fill="#eeb0c9"/></svg>