<svg xmlns="http://www.w3.org/2000/svg" viewBox="0 0 297 297" width="152" height="218"><path d="M250.304 101.804c0-22.556-16.045-41.434-37.322-45.818C208.527 24.387 181.309 0 148.5 0S88.473 24.387 84.019 55.985c-21.277 4.385-37.322 23.263-37.322 45.818 0 22.328 15.727 41.053 36.685 45.682v11.011c0 10.851 6.492 20.208 15.795 24.407l39.86 107.511a10.093 10.093 0 0 0 18.93 0l52.791-142.394c22.371-3.486 39.546-22.882 39.546-46.216zm-101.803 156.06l-27.335-73.728c11.028-3.31 19.089-13.55 19.089-25.641V148a58.62 58.62 0 0 0 8.246.582c10.651 0 20.777-2.839 28.922-7.967a46.276 46.276 0 0 0 12.354 5.916l-41.276 111.333zm55.024-129.472c-7.083 0-13.754-2.773-18.786-7.809-3.909-3.908-10.235-3.949-14.191-.089-5.066 4.945-13.309 7.897-22.047 7.897-5.074 0-10.026-.986-14.32-2.851a10.096 10.096 0 0 0-14.117 9.26v23.694c0 3.566-3.013 6.579-6.579 6.579h-3.335c-3.566 0-6.579-3.013-6.579-6.58l-.001-20.01c0-5.575-4.521-10.094-10.096-10.094-14.66 0-26.588-11.928-26.588-26.588 0-14.661 11.928-26.588 26.588-26.588 5.575 0 10.096-4.521 10.096-10.096 0-24.774 20.155-44.93 44.93-44.93s44.93 20.155 44.93 44.93c0 5.575 4.52 10.096 10.096 10.096 14.66 0 26.588 11.927 26.588 26.588-.001 14.663-11.928 26.591-26.589 26.591z" fill="#eeb0c9"/></svg>