<svg xmlns="http://www.w3.org/2000/svg" viewBox="0 0 465 465" width="512" height="512"><g fill="#FFF"><path d="M343.047 294.476c-17.105-17.104-35.09-31.282-35.847-31.877a7.5 7.5 0 0 0-9.938.593l-21.203 21.204-56.917-56.917a7.5 7.5 0 0 0-10.607 10.607l62.221 62.22a7.502 7.502 0 0 0 10.607 0l21.726-21.727c6.529 5.398 18.266 15.417 29.352 26.504 11.12 11.119 21.165 22.892 26.552 29.41-10.076 9.812-28.982 25.597-43.045 26.893-28.911 2.669-83.581-29.971-132.971-79.36-49.391-49.389-82.025-104.069-79.361-132.973 1.296-14.063 17.083-32.971 26.894-43.045 6.513 5.382 18.275 15.418 29.409 26.553 11.087 11.086 21.106 22.822 26.504 29.353l-21.726 21.725a7.5 7.5 0 0 0-.001 10.608l22.627 22.627a7.5 7.5 0 0 0 10.607-10.607l-17.324-17.323 21.203-21.202a7.5 7.5 0 0 0 .594-9.938c-.595-.757-14.772-18.742-31.877-35.848-17.105-17.105-35.091-31.282-35.848-31.877a7.5 7.5 0 0 0-9.713.377c-3.468 3.19-33.953 31.904-36.287 57.223-3.092 33.554 30.541 91.808 83.691 144.957 50.893 50.892 106.459 83.89 140.544 83.887 1.512 0 2.986-.065 4.411-.196 25.319-2.335 54.033-32.819 57.224-36.287a7.501 7.501 0 0 0 .377-9.713c-.596-.761-14.773-18.745-31.878-35.851z"/><path d="M396.902 68.098C352.988 24.185 294.603 0 232.5 0S112.012 24.185 68.098 68.098C24.185 112.012 0 170.397 0 232.501c0 45.764 13.241 89.906 38.329 127.906L9.94 445.572a7.502 7.502 0 0 0 9.488 9.488l85.165-28.388C142.592 451.759 186.734 465 232.5 465c62.103 0 120.488-24.185 164.402-68.098C440.815 352.989 465 294.604 465 232.501c0-62.104-24.185-120.489-68.098-164.403zM232.5 450c-43.987 0-86.365-13.071-122.553-37.801a7.5 7.5 0 0 0-6.603-.923l-74.43 24.81 24.811-74.43a7.502 7.502 0 0 0-.923-6.604C28.071 318.864 15 276.486 15 232.501 15 112.57 112.57 15 232.5 15S450 112.57 450 232.501C450 352.431 352.43 450 232.5 450z"/></g></svg>