<svg xmlns="http://www.w3.org/2000/svg" viewBox="0 0 497.328 497.328" width="102" height="102"><g fill="#eeb0c9"><path d="M119.208 128.48v-16H70.912l-31.12 51.88 13.712 8.24 26.472-44.12zM269.144 252.6l13.72-8.24-31.12-51.88h-48.296v16h39.232z"/><path d="M317.856 240.48l-48-80h-80l-48-80H52.8l-52.8 88 48 80-48 80 52.8 88h80l48 80h89.064l48-80h80l52.8-88-52.8-88h-80.008zm-127.992-64H260.8l43.2 72-21.6 36-21.6 36h-70.936l-21.6-36-21.6-36 21.6-36 21.6-36zm-171.208-8l43.2-72h70.936l43.2 72-21.6 36-21.6 36H61.856l-43.2-72zm114.136 232H61.856l-43.2-72 43.2-72h70.936l21.6 36 21.6 36-21.6 36-21.6 36zm128.008 80h-70.936l-43.2-72 21.6-36 21.6-36H260.8l21.6 36 21.6 36-43.2 72zm128-80h-70.936l-21.6-36-21.6-36 21.6-36 21.6-36H388.8l43.2 72-43.2 72z"/><path d="M311.976 328.48l26.328-43.88-13.72-8.24-31.264 52.12 33.592 56h50.416v-16h-41.352zm-258.472-4.12l-13.712 8.24 31.12 51.88h48.296v-16H79.976zm179.824 28.12h16v16h-16zm-68.008 56l31.264 52.12 13.72-8.24-26.328-43.88 24-40h9.352v-16h-18.416zm305.424-306.032c-16.136-15.384-34.928-24.104-50.856-25.016 1.832-3.968 2.896-8.336 2.896-12.96 0-6.856-2.288-13.176-6.104-18.384l1.712-3.272c6.672-12.712 18.168-22.2 32.376-26.72L445.928.848c-18.248 5.808-33.064 18.072-41.704 34.536l-.208.392c-4.368-2.04-9.216-3.296-14.4-3.296-5.184 0-10.032 1.256-14.4 3.304l-.208-.392C366.376 18.92 351.568 6.656 333.312.856l-4.84 15.248c14.208 4.52 25.704 14.008 32.368 26.72l1.72 3.272c-3.824 5.208-6.104 11.536-6.104 18.384 0 4.976 1.28 9.624 3.384 13.824-14.272 2.664-30.072 10.936-43.928 24.144-16.648 15.864-26.584 35.168-26.584 51.608 0 9.04 3.04 16.712 8.792 22.192 5.8 5.52 13.72 8.168 22.72 8.168 6.808 0 14.24-1.6 21.816-4.528 6.968 31.424 25.392 52.592 46.96 52.592 22.264 0 41.176-22.768 47.592-55.584 9.888 4.888 19.768 7.52 28.608 7.52 9 0 16.92-2.64 22.72-8.168 5.752-5.48 8.792-13.152 8.792-22.192 0-16.44-9.936-35.744-26.584-51.608zm-81.12-53.968c9.464 0 17.168 7.184 17.168 16s-7.704 16-17.168 16-17.168-7.184-17.168-16 7.704-16 17.168-16zm10.136 96.488a147.92 147.92 0 0 0-12.648-.312c2.344-3.256 4.44-6.552 6.216-9.88 1.832 3.432 4 6.84 6.432 10.192zm-90.6 19.704c-2.544-2.424-3.832-6-3.832-10.616 0-11.976 8.288-27.312 21.632-40.032 21.224-20.232 45.608-25.176 54.216-16.968 2.536 2.424 3.832 5.992 3.832 10.608 0 11.968-8.288 27.312-21.632 40.04-21.232 20.248-45.608 25.192-54.216 16.968zm80.456 51.808c-9.504 0-18.632-8.336-25.016-21.48 15.736-3.184 34.248-3.208 49.992-.016-6.368 13.096-15.44 21.496-24.976 21.496zm30.528-36.624c-19.128-4.288-41.928-4.312-61.056-.048-.632-2.392-1.208-4.84-1.664-7.384 4.832-3.008 9.576-6.56 14.16-10.64 14.872-2.104 31.536-1.464 45.496 1.768a103.489 103.489 0 0 0 5.448 4.304c-.584 4.16-1.376 8.184-2.384 12zm57.344-15.184c-8.576 8.216-32.976 3.272-54.208-16.968-13.344-12.728-21.632-28.072-21.632-40.04 0-4.616 1.288-8.184 3.832-10.608 2.616-2.496 6.704-3.784 11.72-3.784 11.448 0 27.736 6.68 42.496 20.752 13.344 12.72 21.632 28.056 21.632 40.032 0 4.616-1.288 8.192-3.84 10.616z"/></g></svg>